<svg width="73" height="22" viewBox="0 0 73 22" fill="none" xmlns="http://www.w3.org/2000/svg">
<path d="M12.5 1L2 11.5L12.5 21" stroke="black" stroke-width="2"/>
<path d="M30.3965 5.13477V18.2451H29.0195V5.13477H30.3965ZM19.4395 12.2246C22.0176 12.21 25.2695 12.1953 28.1406 11.8877L28.2139 12.9131C26.998 13.0889 25.7529 13.1987 24.5371 13.2646V17.835H23.1455V13.3232C21.8931 13.3745 20.6919 13.3818 19.6006 13.3818L19.4395 12.2246ZM27.2031 9.51465V10.6572H20.6553V5.85254H27.0273V6.96582H22.0469V9.51465H27.2031ZM44.459 15.5059V16.6777H32.4473V15.5059H37.7354V13.2061H33.9121V9.03125H41.6172V7.18555H33.8828V6.04297H42.9941V10.1445H35.2891V12.0635H43.3018V13.2061H39.1123V15.5059H44.459ZM59.2979 5.12012V10.3496H61.334V11.5068H59.2979V18.2305H57.9062V5.12012H59.2979ZM55.8701 6.49707C55.8555 10.291 54.1855 13.6748 49.8643 15.8135L49.0879 14.7295C52.3765 13.0889 54.1636 10.7158 54.4492 7.6543H49.7471V6.49707H55.8701ZM72.9502 5.12012V18.2451H71.5439V5.12012H72.9502ZM69.0391 6.52637C69.0391 10.3643 67.3984 13.7041 62.9014 15.8574L62.1689 14.7295C65.6626 13.0669 67.3618 10.7012 67.6328 7.63965H62.7988V6.52637H69.0391Z" fill="black"/>
</svg>
