
<svg width="7" height="12" viewBox="0 0 7 12" fill="none" xmlns="http://www.w3.org/2000/svg">
<path d="M2.57715 8.14258C2.59082 6.31055 3.15137 5.75 4.09473 5.17578C4.65527 4.83398 5.09277 4.28711 5.09277 3.52148C5.09277 2.5918 4.36816 2.00391 3.46582 2.00391C2.68652 2.00391 1.90723 2.46875 1.8252 3.58984H0.581055C0.649414 1.93555 1.90723 0.964844 3.46582 0.964844C5.1748 0.964844 6.2959 2.07227 6.2959 3.57617C6.2959 4.64258 5.79004 5.39453 4.94238 5.91406C4.09473 6.43359 3.78027 6.95312 3.75293 8.14258V8.21094H2.57715V8.14258ZM3.20605 11.082C2.72754 11.082 2.31738 10.6855 2.33105 10.1934C2.31738 9.71484 2.72754 9.31836 3.20605 9.31836C3.68457 9.31836 4.08105 9.71484 4.08105 10.1934C4.08105 10.6855 3.68457 11.082 3.20605 11.082Z" fill="#048271"/>
</svg>